<?xml version="1.0" encoding="utf-8"?>
<!-- Generator: Adobe Illustrator 23.0.0, SVG Export Plug-In . SVG Version: 6.00 Build 0)  -->
<svg version="1.1" id="OBJECTS" xmlns="http://www.w3.org/2000/svg" xmlns:xlink="http://www.w3.org/1999/xlink" x="0px" y="0px"
	 viewBox="0 0 500 500" style="enable-background:new 0 0 500 500;" xml:space="preserve">
<style type="text/css">
	.st0{opacity:0.17;fill:url(#SVGID_1_);}
	.st1{opacity:0.17;fill:url(#SVGID_2_);}
	.st2{opacity:0.17;fill:url(#SVGID_3_);}
	.st3{opacity:0.17;fill:url(#SVGID_4_);}
	.st4{opacity:0.17;fill:url(#SVGID_5_);}
	.st5{opacity:0.17;fill:url(#SVGID_6_);}
	.st6{fill:#393762;}
	.st7{opacity:0.5;}
	.st8{fill:#FFFFFF;}
	.st9{fill:#1DBFFF;}
	.st10{opacity:0.8;}
	.st11{opacity:0.53;}
	.st12{fill:#1AE5FF;}
	.st13{opacity:0.67;}
	.st14{opacity:0.37;}
	.st15{fill:#8ED2FF;}
	.st16{fill:#F9FBFC;}
	.st17{fill:#0AA5E2;}
	.st18{fill:url(#SVGID_7_);}
	.st19{fill:#CFE3FF;}
	.st20{fill:#B1CAE8;}
	.st21{fill:url(#SVGID_8_);}
	.st22{fill:none;}
	.st23{fill:url(#SVGID_9_);}
	.st24{opacity:0.32;fill:url(#SVGID_10_);}
	.st25{fill:#EDBA8F;}
	.st26{fill:#0061C1;}
	.st27{fill:#113C7A;}
	.st28{opacity:0.32;fill:url(#SVGID_11_);}
	.st29{fill:#FFB699;}
	.st30{fill:#5167B0;}
	.st31{fill:#A969E0;}
	.st32{fill:#EFA389;}
	.st33{fill:#945DCE;}
	.st34{fill:#BA86F2;}
	.st35{fill:#FF9D6F;}
</style>
<g>
	<linearGradient id="SVGID_1_" gradientUnits="userSpaceOnUse" x1="0.9232" y1="275.3621" x2="499.2391" y2="275.3621">
		<stop  offset="0" style="stop-color:#00FFFF"/>
		<stop  offset="1" style="stop-color:#604BC9"/>
	</linearGradient>
	<path class="st0" d="M383.7,127.1C357,47.8,237.1,64.9,208.9,105.2c-28.2,36.3-28.2,84.6-74.5,101.5
		C65.9,236.2-56.4,280.9,31.7,389.3c103.1,126.9,247.8,106.8,294.2,20.1c46.3-86.6,90.7-98,143.1-140.7s32.2-75.4-24.2-81.2
		C398.4,182.8,397.1,166.9,383.7,127.1z"/>
	<linearGradient id="SVGID_2_" gradientUnits="userSpaceOnUse" x1="38.4134" y1="126.3033" x2="375.9071" y2="279.8008">
		<stop  offset="0" style="stop-color:#00FFFF"/>
		<stop  offset="1" style="stop-color:#604BC9"/>
	</linearGradient>
	<path class="st1" d="M255.8,311.8c-56-38.3-112.7,0-207.9-4.7c-17-0.8-30.7-5.6-41.6-13c19-43.7,84.5-68.6,128.1-87.4
		c46.3-16.9,46.3-65.3,74.5-101.5c21.9-31.3,98.9-48.6,144.8-17.8c-0.2,0.4-0.3,0.8-0.5,1.3c-30,70-6.7,67.1,19.1,128.8
		C398.2,279.3,311.7,350.1,255.8,311.8z"/>
	
		<linearGradient id="SVGID_3_" gradientUnits="userSpaceOnUse" x1="105.4972" y1="240.4885" x2="228.7228" y2="218.1013" gradientTransform="matrix(0.9429 0.3332 -0.3332 0.9429 53.4294 -180.9618)">
		<stop  offset="0" style="stop-color:#00FFFF"/>
		<stop  offset="0.2316" style="stop-color:#1DC9EF"/>
		<stop  offset="0.4894" style="stop-color:#3A93DF"/>
		<stop  offset="0.7129" style="stop-color:#4E6CD3"/>
		<stop  offset="0.8904" style="stop-color:#5B54CC"/>
		<stop  offset="1" style="stop-color:#604BC9"/>
	</linearGradient>
	<path class="st2" d="M116.1,79c0,0-14.5,43,15.8,46c30.3,3.1,44.3-42.6,20.1-62.2C127.7,43.3,116.1,79,116.1,79z"/>
	<linearGradient id="SVGID_4_" gradientUnits="userSpaceOnUse" x1="383.286" y1="495.4796" x2="364.1002" y2="467.5326">
		<stop  offset="0" style="stop-color:#00FFFF"/>
		<stop  offset="1" style="stop-color:#604BC9"/>
	</linearGradient>
	<path class="st3" d="M378,464.9c15.4,4.7,14.2,27.9-1.5,31.1c-4.9,1-10.5-0.4-16-5.9c-12.1-12.2-1.7-22.6,9.8-25.4
		c2.4-0.6,5-0.6,7.5,0.1C377.8,464.9,377.9,464.9,378,464.9z"/>
	
		<linearGradient id="SVGID_5_" gradientUnits="userSpaceOnUse" x1="166.4561" y1="307.8877" x2="135.9374" y2="275.3278" gradientTransform="matrix(0.9429 0.3332 -0.3332 0.9429 53.4294 -180.9618)">
		<stop  offset="0" style="stop-color:#00FFFF"/>
		<stop  offset="1" style="stop-color:#604BC9"/>
	</linearGradient>
	<path class="st4" d="M86,133.6c1.9-5.3,7.7-8,13-6.1c5.3,1.9,8.1,7.7,6.2,13c-1.9,5.3-7.7,8-13,6.1C86.9,144.7,84.1,138.9,86,133.6
		z"/>
	<linearGradient id="SVGID_6_" gradientUnits="userSpaceOnUse" x1="409.6309" y1="435.2153" x2="379.1121" y2="402.6554">
		<stop  offset="0" style="stop-color:#00FFFF"/>
		<stop  offset="1" style="stop-color:#604BC9"/>
	</linearGradient>
	<path class="st5" d="M378.7,413c0-5.6,4.5-10.1,10.2-10.1c5.6,0,10.2,4.6,10.2,10.2c0,5.6-4.5,10.1-10.2,10.1
		C383.3,423.2,378.7,418.6,378.7,413z"/>
</g>
<g>
	<g>
		<path class="st6" d="M102.2,227c-3.2,9.7-3,20.6,1.3,29.9c4.3,9.3,12.7,16.7,22.7,19c5.8,1.4,12.1,1,17.5-1.6
			c5.4-2.5,9.8-7.3,11.4-13c1.6-5.7,0.3-12.3-3.8-16.7c-3.1-3.2-8.5-5-11.2-8.5c-4.6-6.2-1.6-15.6-6.2-21.8
			c-4.2-5.7-12.8-6.7-19.1-3.5C108.5,213.9,104.4,220.3,102.2,227z"/>
	</g>
	<g class="st7">
		<path class="st8" d="M228.5,338.9c-3.2,1.8-3.2,4.8,0,6.7L334.3,407c3.2,1.8,8.3,1.8,11.5,0l24.8-11.6c3.2-1.8,3.2-4.8,0-6.7
			l-105.8-61.5c-3.2-1.8-8.3-1.8-11.5,0L228.5,338.9z"/>
	</g>
	<g>
		<path class="st9" d="M199.3,81.9l0,2.6c0,1.6,1.7,2.5,3,1.7l12.5-7.2c0.6-0.4,1-1,1-1.8l0-2.6c0-1.6-1.7-2.5-3-1.7l-12.5,7.2
			C199.7,80.5,199.3,81.2,199.3,81.9z"/>
	</g>
	<g>
		<path class="st9" d="M159.9,117.8l0,2.6c0,1.6,1.7,2.5,3,1.7l51.9-30c0.6-0.4,1-1,1-1.8l0-2.6c0-1.6-1.7-2.5-3-1.7l-51.9,30
			C160.3,116.4,159.9,117,159.9,117.8z"/>
	</g>
	<g class="st10">
		<path class="st8" d="M181.4,131.7l0,2.6c0,1.6,1.7,2.5,3,1.7l30.5-17.6c0.6-0.4,1-1,1-1.8l0-2.6c0-1.6-1.7-2.5-3-1.7L182.4,130
			C181.8,130.3,181.4,131,181.4,131.7z"/>
	</g>
	<g class="st11">
		<path class="st12" d="M168,126.3l0,2.6c0,1.6,1.7,2.5,3,1.7l43.9-25.3c0.6-0.4,1-1,1-1.8l0-2.6c0-1.6-1.7-2.5-3-1.7L169,124.5
			C168.4,124.9,168,125.6,168,126.3z"/>
	</g>
	<g>
		<g>
			<g>
				<path class="st9" d="M439.5,121.9c0.6,0.3,1,1.1,1,1.8l-0.1,18c0,0.7-0.5,0.9-1,0.6l-22.8-13.1c-0.6-0.3-1-1.1-1-1.8l0.1-18
					c0-0.7,0.5-0.9,1-0.6L439.5,121.9z"/>
			</g>
		</g>
		<g class="st13">
			<g>
				<path class="st8" d="M447.8,153.9c0.6,0.3,1,1.1,1,1.8l-0.1,18c0,0.7-0.5,0.9-1,0.6L425,161.1c-0.6-0.3-1-1.1-1-1.8l0.1-18
					c0-0.7,0.5-0.9,1-0.6L447.8,153.9z"/>
			</g>
		</g>
	</g>
	<g>
		<g class="st14">
			<g>
				<path class="st15" d="M216.2,170.9c0.4,0.2,0.7,0.7,0.7,1.2l0,11.6c0,0.4-0.3,0.6-0.7,0.4l-14.7-8.5c-0.4-0.2-0.7-0.7-0.7-1.2
					l0-11.6c0-0.4,0.3-0.6,0.7-0.4L216.2,170.9z"/>
			</g>
		</g>
		<g>
			<g>
				<path class="st8" d="M221.6,191.6c0.4,0.2,0.7,0.7,0.7,1.2l0,11.6c0,0.4-0.3,0.6-0.7,0.4l-14.7-8.5c-0.4-0.2-0.7-0.7-0.7-1.2
					l0-11.6c0-0.4,0.3-0.6,0.7-0.4L221.6,191.6z"/>
			</g>
		</g>
	</g>
	<g>
		<g>
			<g>
				<path class="st16" d="M367,68.8c13.5,7.8,24.4,26.6,24.3,42.1l-0.7,250c0,15.5-11,21.7-24.5,14L262,314.7
					c-13.5-7.8-24.4-26.6-24.3-42.1l0.7-250c0-15.5,11-21.7,24.5-14L367,68.8z"/>
			</g>
			<g>
				<g>
					<path class="st17" d="M328.6,70.7c1.6,0.9,3,3.2,2.9,5.1c0,1.9-1.3,2.6-3,1.7L301.7,62c-1.6-0.9-3-3.2-2.9-5.1
						c0-1.9,1.3-2.6,3-1.7L328.6,70.7z"/>
				</g>
				<g>
					<linearGradient id="SVGID_7_" gradientUnits="userSpaceOnUse" x1="314.4502" y1="369.0768" x2="314.4502" y2="287.1121">
						<stop  offset="0" style="stop-color:#00FFFF"/>
						<stop  offset="1" style="stop-color:#604BC9"/>
					</linearGradient>
					<path class="st18" d="M314.5,308.8c4.4,2.5,8,8.7,7.9,13.8c0,5.1-3.6,7.1-8,4.6s-8-8.7-7.9-13.8
						C306.5,308.3,310.1,306.3,314.5,308.8z"/>
				</g>
				<g>
					<path class="st16" d="M380.6,122.7c1.4,0.8,2.4,2.7,2.4,4.2l-0.6,208.9c0,1.6-1.1,2.2-2.5,1.4L249,261.5
						c-1.4-0.8-2.4-2.7-2.4-4.2l0.6-208.9c0-1.6,1.1-2.2,2.5-1.4L380.6,122.7z"/>
				</g>
			</g>
			<path class="st16" d="M397.1,195.2L397.1,195.2c-0.9,0-1.5-0.7-1.5-1.5v-46.4c0-0.9,0.7-1.5,1.5-1.5l0,0c0.9,0,1.5,0.7,1.5,1.5
				v46.4C398.6,194.5,397.9,195.2,397.1,195.2z"/>
			<path class="st16" d="M397.1,253L397.1,253c-0.9,0-1.5-0.7-1.5-1.5V205c0-0.9,0.7-1.5,1.5-1.5l0,0c0.9,0,1.5,0.7,1.5,1.5v46.4
				C398.6,252.3,397.9,253,397.1,253z"/>
			<path class="st16" d="M397.1,324L397.1,324c-0.9,0-1.5-0.7-1.5-1.5v-24.1c0-0.9,0.7-1.5,1.5-1.5l0,0c0.9,0,1.5,0.7,1.5,1.5v24.1
				C398.6,323.3,397.9,324,397.1,324z"/>
		</g>
		<g>
			<path class="st8" d="M313.6,137.3c6.7,3.9,12.1,13.2,12.2,21c0,0.1,0,0.1,0,0.2c-0.3,0.1-5.6,2.2-12.4-1.5
				c-0.1,0-0.2-0.1-0.2-0.1c-5.3-3.1-9.7-9.2-11.2-11.5c-0.4-0.6-0.6-0.9-0.6-1C301.3,136.6,306.8,133.4,313.6,137.3z"/>
		</g>
		<g>
			<path class="st19" d="M368.8,204.7c1.6,0.9,2.8,3.1,2.8,4.8l0,11.8c0,1.8-1.3,2.5-2.8,1.6L261,160.7c-1.6-0.9-2.8-3.1-2.8-4.8
				l0-11.8c0-1.8,1.3-2.5,2.8-1.6L368.8,204.7z"/>
		</g>
		<g>
			<path class="st20" d="M333.2,191.6c0.4,0.2,0.7,0.8,0.7,1.2l0,2.9c0,0.4-0.3,0.6-0.7,0.4l-59.1-34c-0.4-0.2-0.7-0.8-0.7-1.2
				l0-2.9c0-0.4,0.3-0.6,0.7-0.4L333.2,191.6z"/>
		</g>
		<linearGradient id="SVGID_8_" gradientUnits="userSpaceOnUse" x1="295.9912" y1="97.2936" x2="330.821" y2="168.501">
			<stop  offset="0" style="stop-color:#00FFFF"/>
			<stop  offset="1" style="stop-color:#604BC9"/>
		</linearGradient>
		<path class="st21" d="M332,134.6c0.6,2.1,1.1,4.2,1.3,6.3c0.1,1.2,0.2,2.5,0.2,3.7c0,0.4,0,0.7,0,1.1c0,0.1,0,0.1,0,0.2
			c0,0.3,0,0.7-0.1,1c0,0.1,0,0.1,0,0.2c0,0.3-0.1,0.6-0.1,0.9c-0.1,0.4-0.1,0.7-0.2,1c-0.1,0.4-0.1,0.7-0.2,1c0,0,0,0.1,0,0.1
			c-0.1,0.3-0.2,0.6-0.2,0.8c0,0,0,0.1,0,0.1c-0.1,0.3-0.2,0.5-0.3,0.8c-0.1,0.3-0.2,0.6-0.3,0.8c-0.2,0.3-0.3,0.6-0.4,0.8
			c0,0,0,0.1-0.1,0.1c-0.1,0.2-0.3,0.4-0.4,0.6c0,0,0,0.1-0.1,0.1c-0.1,0.2-0.3,0.4-0.4,0.6c-0.2,0.2-0.3,0.4-0.5,0.6
			c0,0,0,0.1-0.1,0.1c-0.2,0.2-0.3,0.3-0.5,0.5c0,0-0.1,0.1-0.1,0.1c-0.2,0.2-0.3,0.3-0.5,0.5c0,0-0.1,0-0.1,0.1
			c-0.2,0.1-0.4,0.3-0.5,0.4c-0.2,0.2-0.4,0.3-0.6,0.4c0,0-0.1,0-0.1,0.1c-0.2,0.1-0.4,0.2-0.6,0.3c0,0-0.1,0-0.1,0.1
			c-0.2,0.1-0.4,0.2-0.6,0.3c-0.2,0.1-0.3,0.1-0.4,0.1c-0.1-7.7-5.5-17.1-12.2-20.9c-6.8-3.9-12.3-0.8-12.3,7c0,0,0.2,0.3,0.6,0.9
			c-0.2-0.2-0.3-0.4-0.5-0.7c-0.3-0.4-0.5-0.7-0.7-1.1c0-0.1-0.1-0.1-0.1-0.2c-0.2-0.3-0.4-0.7-0.6-1c0-0.1-0.1-0.1-0.1-0.2
			c-0.2-0.3-0.4-0.7-0.6-1c-0.2-0.4-0.4-0.7-0.6-1.1c0-0.1-0.1-0.1-0.1-0.2c-0.2-0.3-0.4-0.7-0.6-1.1c0-0.1-0.1-0.1-0.1-0.2
			c-0.2-0.3-0.3-0.7-0.5-1c-0.2-0.5-0.4-0.8-0.5-1.2c0-0.1-0.1-0.1-0.1-0.2c-0.2-0.4-0.3-0.7-0.5-1.1c-0.2-0.5-0.3-0.8-0.5-1.2
			c0-0.1,0-0.1-0.1-0.2c-0.1-0.4-0.3-0.7-0.4-1.1c0-0.1,0-0.1-0.1-0.2c-0.2-0.8-0.5-1.5-0.7-2.3c0-0.1,0-0.1-0.1-0.2
			c-0.1-0.4-0.2-0.7-0.3-1.1c0-0.1,0-0.1,0-0.2c-0.1-0.3-0.2-0.7-0.2-1c-0.1-0.5-0.2-0.9-0.2-1.2c0-0.1,0-0.2,0-0.2
			c-0.1-0.4-0.1-0.7-0.2-1.1c-0.1-0.5-0.1-0.8-0.1-1.1c0-0.1,0-0.1,0-0.2c0-0.4,0-0.7-0.1-1.1c0-0.1,0-0.2,0-0.2c0-0.4,0-0.7,0-1.1
			c0-1.2,0.1-2.3,0.2-3.4c0.3-1.8,0.7-3.3,1.4-4.7c0.1-0.3,0.3-0.5,0.4-0.8c3.3-5.9,10.2-7.2,18.2-2.6c7.2,4.1,13.4,12.1,17,20.6
			c0.2,0.6,0.5,1.1,0.7,1.7C331.5,133,331.7,133.8,332,134.6z M313.9,135.2c4.1,2.4,7.5,0.5,7.5-4.3c0-4.7-3.3-10.5-7.4-12.9
			c-4.1-2.4-7.5-0.5-7.5,4.3C306.4,127.1,309.7,132.8,313.9,135.2"/>
		<path class="st22" d="M332,134.6c0.6,2.1,1.1,4.2,1.3,6.3c0.1,1.2,0.2,2.5,0.2,3.7c0,0.4,0,0.7,0,1.1c0,0.1,0,0.1,0,0.2
			c0,0.3,0,0.7-0.1,1c0,0.1,0,0.1,0,0.2c0,0.3-0.1,0.6-0.1,0.9c-0.1,0.4-0.1,0.7-0.2,1c-0.1,0.4-0.1,0.7-0.2,1c0,0,0,0.1,0,0.1
			c-0.1,0.3-0.2,0.6-0.2,0.8c0,0,0,0.1,0,0.1c-0.1,0.3-0.2,0.5-0.3,0.8c-0.1,0.3-0.2,0.6-0.3,0.8c-0.2,0.3-0.3,0.6-0.4,0.8
			c0,0,0,0.1-0.1,0.1c-0.1,0.2-0.3,0.4-0.4,0.6c0,0,0,0.1-0.1,0.1c-0.1,0.2-0.3,0.4-0.4,0.6c-0.2,0.2-0.3,0.4-0.5,0.6
			c0,0,0,0.1-0.1,0.1c-0.2,0.2-0.3,0.3-0.5,0.5c0,0-0.1,0.1-0.1,0.1c-0.2,0.2-0.3,0.3-0.5,0.5c0,0-0.1,0-0.1,0.1
			c-0.2,0.1-0.4,0.3-0.5,0.4c-0.2,0.2-0.4,0.3-0.6,0.4c0,0-0.1,0-0.1,0.1c-0.2,0.1-0.4,0.2-0.6,0.3c0,0-0.1,0-0.1,0.1
			c-0.2,0.1-0.4,0.2-0.6,0.3c-0.2,0.1-0.3,0.1-0.4,0.1c-0.1-7.7-5.5-17.1-12.2-20.9c-6.8-3.9-12.3-0.8-12.3,7c0,0,0.2,0.3,0.6,0.9
			c-0.2-0.2-0.3-0.4-0.5-0.7c-0.3-0.4-0.5-0.7-0.7-1.1c0-0.1-0.1-0.1-0.1-0.2c-0.2-0.3-0.4-0.7-0.6-1c0-0.1-0.1-0.1-0.1-0.2
			c-0.2-0.3-0.4-0.7-0.6-1c-0.2-0.4-0.4-0.7-0.6-1.1c0-0.1-0.1-0.1-0.1-0.2c-0.2-0.3-0.4-0.7-0.6-1.1c0-0.1-0.1-0.1-0.1-0.2
			c-0.2-0.3-0.3-0.7-0.5-1c-0.2-0.5-0.4-0.8-0.5-1.2c0-0.1-0.1-0.1-0.1-0.2c-0.2-0.4-0.3-0.7-0.5-1.1c-0.2-0.5-0.3-0.8-0.5-1.2
			c0-0.1,0-0.1-0.1-0.2c-0.1-0.4-0.3-0.7-0.4-1.1c0-0.1,0-0.1-0.1-0.2c-0.2-0.8-0.5-1.5-0.7-2.3c0-0.1,0-0.1-0.1-0.2
			c-0.1-0.4-0.2-0.7-0.3-1.1c0-0.1,0-0.1,0-0.2c-0.1-0.3-0.2-0.7-0.2-1c-0.1-0.5-0.2-0.9-0.2-1.2c0-0.1,0-0.2,0-0.2
			c-0.1-0.4-0.1-0.7-0.2-1.1c-0.1-0.5-0.1-0.8-0.1-1.1c0-0.1,0-0.1,0-0.2c0-0.4,0-0.7-0.1-1.1c0-0.1,0-0.2,0-0.2c0-0.4,0-0.7,0-1.1
			c0-1.2,0.1-2.3,0.2-3.4c0.3-1.8,0.7-3.3,1.4-4.7c0.1-0.3,0.3-0.5,0.4-0.8c3.3-5.9,10.2-7.2,18.2-2.6c7.2,4.1,13.4,12.1,17,20.6
			c0.2,0.6,0.5,1.1,0.7,1.7C331.5,133,331.7,133.8,332,134.6z M313.9,135.2c4.1,2.4,7.5,0.5,7.5-4.3c0-4.7-3.3-10.5-7.4-12.9
			c-4.1-2.4-7.5-0.5-7.5,4.3C306.4,127.1,309.7,132.8,313.9,135.2"/>
		<g>
			<path class="st8" d="M313.9,118.1c4.1,2.4,7.5,8.2,7.4,12.9c0,4.7-3.4,6.7-7.5,4.3c-4.1-2.4-7.5-8.2-7.4-12.9
				C306.4,117.6,309.8,115.7,313.9,118.1z"/>
		</g>
		<g>
			<path class="st19" d="M368.7,230.4c1.6,0.9,2.8,3.1,2.8,4.8l0,11.8c0,1.8-1.3,2.5-2.8,1.6l-107.7-62.2c-1.6-0.9-2.8-3.1-2.8-4.8
				l0-11.8c0-1.8,1.3-2.5,2.8-1.6L368.7,230.4z"/>
		</g>
		<linearGradient id="SVGID_9_" gradientUnits="userSpaceOnUse" x1="309.1879" y1="211.1819" x2="309.1879" y2="285.55">
			<stop  offset="0" style="stop-color:#5155D4"/>
			<stop  offset="1" style="stop-color:#45F7FF"/>
		</linearGradient>
		<path class="st23" d="M326.6,249.4c3.7,2.1,6.6,7.3,6.6,11.5l0,2.7c0,4.2-3,5.9-6.7,3.8l-34.8-20.1c-3.7-2.1-6.7-7.3-6.6-11.5
			l0-2.7c0-4.2,3-5.9,6.7-3.8L326.6,249.4z"/>
	</g>
	<linearGradient id="SVGID_10_" gradientUnits="userSpaceOnUse" x1="211.9167" y1="412.9735" x2="291.0912" y2="412.9735">
		<stop  offset="0" style="stop-color:#5155D4"/>
		<stop  offset="1" style="stop-color:#45F7FF"/>
	</linearGradient>
	<ellipse class="st24" cx="251.5" cy="413" rx="39.6" ry="23.5"/>
	<g>
		<path class="st25" d="M291.7,253.1c0,0,2.4-1.6,3-2.4c0.6-0.8,1.4-5.3,0.6-5.5c-0.8-0.2-1.4,3-1.4,3s-0.2-8.3-1.2-9.5
			c-1-1.2-4.1,4.7-4.3,5.7c-0.2,1-1,5.1-1,5.1S288.5,253.1,291.7,253.1z"/>
		<path class="st26" d="M231.5,276.9c0,0-6.2,6.2-1.8,13.7c4.3,7.5,33.9-11,37-13.8c3.2-2.8,23.8-21.3,25-23.6
			c1.2-2.4-1.4-4.7-4.5-4.3c-3.2,0.4-15.8,13.8-25.6,20.1C261.5,268.9,238,274.2,231.5,276.9z"/>
		<path class="st6" d="M235.1,407.9c0,0-0.5,3.7,0.2,5.3c0.7,1.4,3.4,2.4,5.3,1c1.9-1.4,5.1-4.7,5.1-4.7s5.4-2.9,5.9-4.4
			c0.5-1.5-1.4-2.9-2.9-2.5c-1.5,0.3-5.9,3.1-8,3.1C238.6,405.5,235.8,406,235.1,407.9z"/>
		<path class="st26" d="M229.5,328.5c0,0,4.7,78.3,5.3,80.6c0.6,2.3,6.7,3.6,7.9,0c0.7-2.3,2.5-74.8,2.5-74.8L229.5,328.5z"/>
		<path class="st6" d="M250.8,412.6c-0.3,0.2-0.4,0.6-0.4,0.9c0,1.1,0,3.5,0.6,4.4c0.8,1.2,3.3,2.5,5.9,1.1c2.2-1.2,9-6.2,10.3-7.4
			c0.8-0.7,1.2-1.5,1.4-2.2c0.1-0.6-0.1-1.2-0.7-1.4c-1-0.4-2.6-1-4.1-0.5c-2.2,0.8-5.1,3.2-8.1,3
			C253.4,410.5,251.6,411.9,250.8,412.6z"/>
		<path class="st26" d="M261.3,329.4c-0.3-3.3-4.2-4.3-7.8-3.2c-6.8-0.4-17.4-0.1-17.8,5.2c-0.6,7.9,3.1,13.5,6.7,17.3
			c2.6,2.8,4.4,8.2,5.1,10.8c0.6,20.8,2,50.1,2.9,52.9c1.4,4.5,8.2,4.3,8.5-0.1C260.2,397.4,261.3,329.4,261.3,329.4z"/>
		<path class="st27" d="M261.3,331.8c-0.8,4-12.3,6-19,5c-6.7-1.1-13.9-4.4-13.7-12.1c0,0,1.3-18.6,0.8-21.9
			c-0.5-3.3-1.8-9.2-1.8-15.3c0-6.1,3.8-10.6,3.8-10.6s3.8-4.3,15.5-1.9c0,0,9.6,2.1,14,9.2c0,0,3.1,7.8,2,24.1
			C262,324.6,261.3,331.8,261.3,331.8z"/>
		<path class="st25" d="M237.8,266.4c0,0,1,5.9,0,8.6c-0.2,1.4,5.8,5.9,11,4.7c3.1-0.7,2.9-2.2,2.9-2.2s-2.5-4.2-2.2-8.3
			C249.8,265.2,241.4,265.5,237.8,266.4z"/>
		<g>
			<path class="st25" d="M257.6,254.4c0,7.7-6.3,14-14,14c-7.7,0-14-6.3-14-14c0-7.7,6.3-14,14-14
				C251.4,240.5,257.6,246.7,257.6,254.4z"/>
			<path class="st25" d="M257.6,255.4c0,0,0.2,14-2.9,16.8c-3.1,2.8-7.7-2.6-15.2-4.4c-7.5-1.9,6.1-16.5,6.1-16.5L257.6,255.4z"/>
		</g>
		<path class="st25" d="M288.7,276.1c0,0-1.3-5.5-0.9-5.9c0.4-0.4,2.2,1.9,2.2,1.9s0.9-5.6,1.6-6.2c0.7-0.6,3.7,2.4,4.1,4
			c0.4,1.6-1.8,8.1-2.7,8.3C292.2,278.3,289.1,278.7,288.7,276.1z"/>
		<path class="st26" d="M256.9,282.6c0,0-6.2,3-3.5,10.6c2.7,7.7,22.5,10.6,24.8,8.3c2.4-2.4,12.7-14.5,15.7-23.6
			c0,0-1.2-3.5-5.9-2.1c0,0-11.2,14.2-13,15.7C273.2,292.9,259.9,282,256.9,282.6z"/>
		<path class="st6" d="M231.7,243.8c0,0,4.4-5.3,11.9-5.8c7.5-0.5,7.1,2.1,14,1.7c2.9-0.2,3.9,2.3,3.6,6c-0.2,2.7-3.5,6.4-8.4,6.4
			c-4.8,0-4.7,0-4.7,0s3.9,1.7,4.4,5.1c0.5,3.4-0.2,3.3-0.2,3.3s-1.4-1.3-3.4-0.4c-1.8,0.8-1.9,6.1-0.2,7c1.7,1,1.7,1,1.7,1
			s-3.3,6-5,6.3c-1.8,0.3-7.6-4.1-7.6-4.1s-8.1-5.2-9.1-12.8C227.7,249.9,231.7,243.8,231.7,243.8z"/>
	</g>
	<g>
		<g>
			<linearGradient id="SVGID_11_" gradientUnits="userSpaceOnUse" x1="87.1089" y1="373.9984" x2="166.2832" y2="373.9984">
				<stop  offset="0" style="stop-color:#5155D4"/>
				<stop  offset="1" style="stop-color:#45F7FF"/>
			</linearGradient>
			<ellipse class="st28" cx="126.7" cy="374" rx="39.6" ry="23.5"/>
			<g>
				<g>
					<path class="st29" d="M106.6,309.7c0,0,2.7,16.8,4.9,26.2c0,0,0.4,15.5,0.9,20.8c0.4,5.3,1.8,16.8,1.8,16.8s1.6,1.3,3.3,0.4
						c0,0,2.2-33,2.7-38.3c0.4-5.3,2-29.3,2-29.3S117.1,301.7,106.6,309.7z"/>
					<path class="st29" d="M123.3,303c0,0,2.7,16.8,4.9,26.2c0,0,0.4,15.5,0.9,20.8c0.4,5.3,1.8,16.8,1.8,16.8s1.6,1.3,3.3,0.4
						c0,0,2.2-33,2.7-38.3c0.4-5.3,0.7-29,0.7-29S133.7,295,123.3,303z"/>
					<path class="st27" d="M110,286.9c0,0-6.3,6.9-2.7,30.1c0.2,3.3,2.4,11.9,2.4,11.9s8.2,1.3,18-2.4c9.8-3.8,10-5.8,10-5.8
						s0.4-29.2-1.8-36.7C133.7,276.5,110,286.9,110,286.9z"/>
					<path class="st30" d="M134.2,365.7c0,0-0.2,1.7,1.6,3c1.8,1.3,5.1,3.8,5.7,5.2c0,1.1-4.2-0.1-6.1-1.1c-1.9-1-3.7-3.3-3.7-3.3
						l0.1,1c0,0-0.7,0-1.2-0.6c-0.6-0.6,0.1-4,0.1-4L134.2,365.7z"/>
					<path class="st30" d="M117.6,373.4c0,0-0.2,1.7,1.6,3c1.8,1.3,5.1,3.8,5.7,5.2c0,1.1-4.2-0.1-6.1-1.1c-1.9-1-3.7-3.3-3.7-3.3
						l0.1,1c0,0-0.7,0-1.2-0.6c-0.6-0.6,0.1-4,0.1-4L117.6,373.4z"/>
				</g>
				<path class="st31" d="M133.6,243c0,0,6,0.7,9.8,13.3c2.2,8.3,5.5,9,9.2,9.8c3.7,0.7,19.4,0,20.7,0c1.2,0,2.7,2.7,1,4.7
					c-1.7,2-23.4,4-27.7,4c-4.2,0-14-8-17.9-14.5C124.7,253.8,128.4,242.5,133.6,243z"/>
				<g>
					<path class="st31" d="M116.2,240.4c0,0-12.3,8.8-13.5,11.7c-1.2,2.9-2.9,12,1.1,16.5c6.9,7.7,2.8,21,3.7,25
						c0.9,3.9,10.3,4.4,16.8,3.1c6.5-1.3,12.6-4.6,12.3-12.2c-0.2-7.6,1.8-18.1,2.2-21.5c0.4-3.4,0-12-1.6-17.8
						c-0.3-1.2-4.4-2.5-4.4-2.5S128.4,239.8,116.2,240.4z"/>
					<path class="st32" d="M126.9,238.7c0,0,0,0.2,0,0.4c0.1,0.9,0.6,3.2,0.7,4.2c0.1,0.9-1,2.5-3.5,2.5c-2.5-0.1-6.7-1.1-8.1-4.1
						c0.1-0.5-0.1-6-0.4-8.8L126.9,238.7z"/>
					<path class="st29" d="M133.8,222.1c-1.3-7.1-7-11.2-13.4-9.7c0,0-6.9,0.7-10,6.8c-3.1,6.1,1.4,11.2,4.3,14.5
						c1.2,1.3,2.1,2.4,2.7,3c0.2,0.2,0.4,0.5,0.6,0.7c0,0,0.1,0.1,0.1,0.1l0,0c2,2,4.3,3.1,5.9,3.6c2.8,0.8,6.1,0.4,7.9-1.5
						C133.8,237.6,135.2,229.2,133.8,222.1z"/>
				</g>
				<path class="st33" d="M106.5,270.4l15.5,4.9l14.4-4c-0.2,0.6-4,12.3-12.3,14.4c-5.9,1.5-13-3.7-16.5-6.8
					c-0.2-2.2-0.7-4.3-1.5-6.3L106.5,270.4z"/>
				<g>
					<path class="st34" d="M107.2,255.8c0,0-8.2-2-4.7,9.2c3.5,11.2,15.2,19.4,19.4,18.9c4.2-0.5,21.4-18.7,21.4-20.9
						c0-2.2-2-3.7-4-3.2c-2,0.5-15.2,14.7-16.4,14.2C121.7,273.5,114,260.6,107.2,255.8z"/>
					<path class="st35" d="M141,263.9c0,0-2.3-0.7-1.6-3.2c0.7-2.5,5.2-4.4,5.9-4.5c0.7-0.1,7.4,1.2,7.7,2.1
						c0.3,0.8-1.2,1.2-2.9,0.8c-1.6-0.4-4.1-0.5-4.1-0.5s1.8,1.9,1.6,2.7c-0.1,0.8-1.1,2.5-2.5,3.2c-1.4,0.7-3-0.8-3-0.8L141,263.9z
						"/>
				</g>
				<path class="st35" d="M171.2,266.4c0,0,5.4-4.6,5.7-3.8c0.3,0.8-1.9,3.1-1.9,3.1s7.3-2.8,7.4-1.8c0.1,0.9-3.8,3.9-4.9,4.6
					c-1,0.7-4.7,1.7-4.7,1.7S170.8,267.5,171.2,266.4z"/>
			</g>
		</g>
		<g class="st10">
			<path class="st8" d="M146.5,225.1c-1.8,1-3.2,3.6-3.2,5.6l0.2,76.4c0,4.9,3.5,6.9,7.7,4.4l45.5-26.3c1.8-1,3.2-3.6,3.2-5.6
				l-0.2-76.4c0-4.9-3.5-6.9-7.7-4.4L146.5,225.1z"/>
		</g>
		<g>
			<g>
				<g>
					<path class="st9" d="M153.5,252.8c-0.5,0.3-1,1.1-1,1.7l0,4.1c0,0.6,0.4,0.9,1,0.6l37.1-21.4c0.5-0.3,1-1.1,1-1.7l0-4.1
						c0-0.6-0.4-0.9-1-0.5L153.5,252.8z"/>
				</g>
				<g>
					<path class="st9" d="M153.5,261.6c-0.5,0.3-1,1.1-1,1.7l0,4.1c0,0.6,0.4,0.9,1,0.5l37.1-21.4c0.5-0.3,1-1.1,1-1.7l0-4.1
						c0-0.6-0.4-0.9-1-0.6L153.5,261.6z"/>
				</g>
			</g>
			<path class="st12" d="M168,268.2c-1.3,0.7-2.3,2.5-2.3,4l0,0.9c0,1.5,1,2,2.3,1.3l12-6.9c1.3-0.7,2.3-2.5,2.3-4l0-0.9
				c0-1.5-1-2-2.3-1.3L168,268.2z"/>
		</g>
	</g>
	<g>
		<path class="st6" d="M114.8,233.6c11-3,17.3-18.2,17.3-18.2l-3-3.2c0,0-17.5-5.2-21.9,7.3C102.6,232,114.8,233.6,114.8,233.6z"/>
	</g>
	<path class="st6" d="M250.1,249.3c0,0,5.6,4.6,12.9,0c0,0-3.2,6.6-13.4,3.9l-6.3-2.7L250.1,249.3z"/>
	<g>
		<path class="st20" d="M269.8,179.9c-0.7-0.1-1.5,0.7-1.7,1.8c-0.3,1.1,0.1,2.1,0.8,2.3c0.7,0.1,1.5-0.7,1.7-1.8
			C270.8,181,270.5,180,269.8,179.9z"/>
		<path class="st20" d="M277.3,184c-0.7-0.1-1.5,0.7-1.7,1.8c-0.3,1.1,0.1,2.1,0.8,2.3c0.7,0.1,1.5-0.7,1.7-1.8
			C278.3,185.1,278,184.1,277.3,184z"/>
		<path class="st20" d="M284.8,188.1c-0.7-0.1-1.5,0.7-1.7,1.8c-0.3,1.1,0.1,2.1,0.8,2.3c0.7,0.1,1.5-0.7,1.7-1.8
			S285.5,188.2,284.8,188.1z"/>
		<path class="st20" d="M292.4,192.1c-0.7-0.1-1.5,0.7-1.7,1.8c-0.3,1.1,0.1,2.1,0.8,2.3c0.7,0.1,1.5-0.7,1.7-1.8
			C293.4,193.3,293.1,192.3,292.4,192.1z"/>
		<path class="st20" d="M299.9,196.2c-0.7-0.1-1.5,0.7-1.7,1.8s0.1,2.1,0.8,2.3c0.7,0.1,1.5-0.7,1.7-1.8S300.6,196.3,299.9,196.2z"
			/>
		<path class="st20" d="M307.4,200.3c-0.7-0.1-1.5,0.7-1.7,1.8s0.1,2.1,0.8,2.3c0.7,0.1,1.5-0.7,1.7-1.8S308.1,200.4,307.4,200.3z"
			/>
	</g>
</g>
</svg>
